<?xml version="1.0" encoding="UTF-8"?><svg id="Layer_3" xmlns="http://www.w3.org/2000/svg" viewBox="0 0 600 450"><defs><style>.cls-1{fill:#32328c;}.cls-2{fill:#0e0e26;}.cls-3{fill:#fff;}</style></defs><rect class="cls-1" width="600" height="450"/><rect class="cls-2" x="44.91" y="45.08" width="510" height="360"/><path class="cls-3" d="M268.54,135.02v132.78s-.81,44.98-67.58,44.98-66.77-44.98-66.77-44.98l-.6-132.84,44.98.06v109.47s0,23.31,22.49,23.31,22.45-23.31,22.45-23.31l.06-109.47h44.97Z"/><polygon class="cls-1" points="326.6 312.78 429.63 135.02 384.66 135.02 326.6 234.82 268.54 135.02 223.58 135.02 326.6 312.78"/><polygon class="cls-3" points="371.57 312.78 474.59 135.02 429.63 135.02 371.57 234.82 313.51 135.02 268.54 135.02 371.57 312.78"/></svg>